<svg aria-hidden="true" style="position:absolute;width:0;height:0" xmlns="http://www.w3.org/2000/svg" overflow="hidden"><defs><symbol id="icon-lock-closed" viewBox="0 0 20 20"><path d="M4 8V6a6 6 0 1112 0v2h1a2 2 0 012 2v8a2 2 0 01-2 2H3a2 2 0 01-2-2v-8c0-1.1.9-2 2-2h1zm5 6.73V17h2v-2.27a2 2 0 10-2.009-.005L9 14.73zM7 6v2h6V6a3 3 0 10-6 0z"/></symbol><symbol id="icon-cog" viewBox="0 0 32 32"><path d="M29.181 19.07c-1.679-2.908-.669-6.634 2.255-8.328l-3.145-5.447a6.022 6.022 0 01-3.058.829c-3.361 0-6.085-2.742-6.085-6.125h-6.289a6.023 6.023 0 01-.811 3.07C10.369 5.977 6.637 6.966 3.709 5.28L.565 10.727a6.023 6.023 0 012.246 2.234c1.676 2.903.672 6.623-2.241 8.319l3.145 5.447a6.022 6.022 0 013.044-.82c3.35 0 6.067 2.725 6.084 6.092h6.289a6.032 6.032 0 01.811-3.038c1.676-2.903 5.399-3.894 8.325-2.219l3.145-5.447a6.032 6.032 0 01-2.232-2.226zM16 22.479A6.48 6.48 0 1116 9.52a6.48 6.48 0 010 12.959z"/></symbol><symbol id="icon-cross" viewBox="0 0 32 32"><path d="M31.708 25.708L22 16l9.708-9.708a1 1 0 000-1.414L27.122.292a1 1 0 00-1.414-.001L16 9.999 6.292.291a.998.998 0 00-1.414.001L.292 4.878a1 1 0 000 1.414L10 16 .292 25.708a.999.999 0 000 1.414l4.586 4.586a1 1 0 001.414 0L16 22l9.708 9.708a1 1 0 001.414 0l4.586-4.586a.999.999 0 000-1.414z"/></symbol><symbol id="icon-volume-high" viewBox="0 0 34 32"><path d="M27.814 28.814a1.5 1.5 0 01-1.061-2.56C29.492 23.515 31 19.874 31 16.001s-1.508-7.514-4.247-10.253a1.5 1.5 0 112.121-2.121C32.179 6.932 34 11.327 34 16.001s-1.82 9.069-5.126 12.374a1.495 1.495 0 01-1.061.439zm-5.329-2.829a1.5 1.5 0 01-1.061-2.56c4.094-4.094 4.094-10.755 0-14.849a1.5 1.5 0 112.121-2.121c2.55 2.55 3.954 5.94 3.954 9.546s-1.404 6.996-3.954 9.546a1.495 1.495 0 01-1.061.439zm-5.328-2.828a1.5 1.5 0 01-1.061-2.56 6.508 6.508 0 000-9.192 1.5 1.5 0 112.121-2.121c3.704 3.704 3.704 9.731 0 13.435a1.495 1.495 0 01-1.061.439zM13 30a1 1 0 01-.707-.293L4.586 22H1a1 1 0 01-1-1V11a1 1 0 011-1h3.586l7.707-7.707A1 1 0 0114 3v26a1.002 1.002 0 01-1 1z"/></symbol><symbol id="icon-volume-mute" viewBox="0 0 32 32"><path d="M13 30a1 1 0 01-.707-.293L4.586 22H1a1 1 0 01-1-1V11a1 1 0 011-1h3.586l7.707-7.707A1 1 0 0114 3v26a1.002 1.002 0 01-1 1z"/></symbol></defs></svg>